<svg width="60" height="60" viewBox="0 0 60 60" fill="none" xmlns="http://www.w3.org/2000/svg">
<path fill-rule="evenodd" clip-rule="evenodd" d="M9 15C9 14.2044 9.31607 13.4413 9.87868 12.8787C10.4413 12.3161 11.2044 12 12 12H48C48.7957 12 49.5587 12.3161 50.1213 12.8787C50.6839 13.4413 51 14.2044 51 15C51 15.7956 50.6839 16.5587 50.1213 17.1213C49.5587 17.6839 48.7957 18 48 18H12C11.2044 18 10.4413 17.6839 9.87868 17.1213C9.31607 16.5587 9 15.7956 9 15ZM9 30C9 29.2044 9.31607 28.4413 9.87868 27.8787C10.4413 27.3161 11.2044 27 12 27H48C48.7957 27 49.5587 27.3161 50.1213 27.8787C50.6839 28.4413 51 29.2044 51 30C51 30.7956 50.6839 31.5587 50.1213 32.1213C49.5587 32.6839 48.7957 33 48 33H12C11.2044 33 10.4413 32.6839 9.87868 32.1213C9.31607 31.5587 9 30.7956 9 30ZM27 45C27 44.2043 27.3161 43.4413 27.8787 42.8787C28.4413 42.3161 29.2044 42 30 42H48C48.7957 42 49.5587 42.3161 50.1213 42.8787C50.6839 43.4413 51 44.2043 51 45C51 45.7957 50.6839 46.5587 50.1213 47.1213C49.5587 47.6839 48.7957 48 48 48H30C29.2044 48 28.4413 47.6839 27.8787 47.1213C27.3161 46.5587 27 45.7957 27 45Z" fill="#354259"/>
</svg>
