<svg width="60" height="60" viewBox="0 0 60 60" fill="none" xmlns="http://www.w3.org/2000/svg">
<path d="M11.4375 11.4375C12.1408 10.7345 13.0944 10.3396 14.0888 10.3396C15.0832 10.3396 16.0368 10.7345 16.74 11.4375L30 24.6975L43.26 11.4375C43.9673 10.7544 44.9146 10.3764 45.8978 10.385C46.881 10.3935 47.8216 10.7879 48.5169 11.4832C49.2121 12.1785 49.6065 13.119 49.6151 14.1022C49.6236 15.0855 49.2456 16.0327 48.5625 16.74L35.3025 30L48.5625 43.26C49.2456 43.9673 49.6236 44.9145 49.6151 45.8978C49.6065 46.881 49.2121 47.8215 48.5169 48.5168C47.8216 49.2121 46.881 49.6065 45.8978 49.615C44.9146 49.6236 43.9673 49.2456 43.26 48.5625L30 35.3025L16.74 48.5625C16.0328 49.2456 15.0855 49.6236 14.1023 49.615C13.1191 49.6065 12.1785 49.2121 11.4832 48.5168C10.7879 47.8215 10.3936 46.881 10.385 45.8978C10.3765 44.9145 10.7545 43.9673 11.4375 43.26L24.6975 30L11.4375 16.74C10.7345 16.0368 10.3396 15.0831 10.3396 14.0887C10.3396 13.0944 10.7345 12.1407 11.4375 11.4375V11.4375Z" fill="black"/>
</svg>
